Coordinates
version=1
nRows=9
nColumns=36
inDegrees=yes

Units are S.I. units (second, meters, Newtons, ...)
If the header above contains a line with 'inDegrees', this indicates whether rotational values are in degrees (yes) or radians (no).

endheader
time	pelvis_tilt	pelvis_list	pelvis_rotation	pelvis_tx	pelvis_ty	pelvis_tz	hip_flexion_r	hip_adduction_r	hip_rotation_r	knee_angle_r	knee_angle_r_beta	ankle_angle_r	subtalar_angle_r	mtp_angle_r	hip_flexion_l	hip_adduction_l	hip_rotation_l	knee_angle_l	knee_angle_l_beta	ankle_angle_l	subtalar_angle_l	mtp_angle_l	lumbar_extension	lumbar_bending	lumbar_rotation	arm_flex_r	arm_add_r	arm_rot_r	elbow_flex_r	pro_sup_r	arm_flex_l	arm_add_l	arm_rot_l	elbow_flex_l	pro_sup_l
      6.00000000	     -5.80346200	      2.41878206	    -26.44725514	      0.22818905	      0.95078178	     -0.04126066	      9.21019815	    -18.58836412	    -23.55958336	      6.12699673	      0.10693627	    -16.19018894	    -15.89506080	     -7.49999987	     10.34936506	     -4.67928808	    -17.09033797	      3.51837061	      0.06140715	     -5.29929255	    -13.95111544	     -7.49999987	     -7.19064989	     -1.39424289	     -4.39772752	     -1.81724807	     -8.35266419	    -42.90249921	     47.08736757	     81.34810014	     13.65901880	     -7.93546702	     16.39709496	     18.37720430	     73.91752952
      6.01694920	     -5.84443973	      2.67019939	    -27.63279069	      0.21908830	      0.94347512	     -0.03726727	      9.36797055	    -18.90277267	    -24.10164149	      5.65075597	      0.09862430	    -17.56286702	    -16.50415476	     -7.49999987	     10.55891437	     -5.14822749	    -18.22619745	      3.51943086	      0.06142566	     -5.55707087	    -14.00227603	     -7.49999987	     -7.09851910	     -1.35563428	     -4.98963789	     -1.11142357	     -9.34423665	    -44.05082224	     49.62680106	     78.93328034	     13.29414159	     -8.22972719	     16.43479910	     19.42320300	     72.99270882
      6.03389830	     -5.96623974	      2.98945804	    -29.09453650	      0.20916224	      0.94295586	     -0.03094024	     10.04823282	    -19.01028098	    -24.50401682	      5.21464027	      0.09101264	    -18.45305802	    -16.42790770	     -7.49999987	     10.83551492	     -5.67882454	    -19.32326308	      3.51437238	      0.06133737	     -6.10277114	    -14.55299895	     -7.49999987	     -6.74115305	     -1.41967524	     -4.03999839	     -1.22654558	     -9.95009064	    -47.17054770	     53.13122832	     74.82367247	     14.63923509	     -7.95487711	     18.49388607	     17.71933865	     75.73298910
      6.05084750	     -6.05665051	      3.33731667	    -30.85745447	      0.20100261	      0.93638279	     -0.02506894	     11.00427101	    -18.91054594	    -24.43685324	      4.79758134	      0.08373359	    -19.12158965	    -16.38263074	     -7.49999987	     11.06826184	     -6.24894388	    -20.60631054	      3.47121239	      0.06058409	     -6.58907562	    -15.28069491	     -7.49999987	     -6.34555559	     -1.34130673	     -4.60499909	      0.04138014	    -10.89599693	    -47.96216491	     56.18475207	     72.13121480	     14.20144640	     -8.44486490	     17.68601396	     18.64133250	     74.19429502
      6.06779660	     -6.04514944	      3.56929146	    -32.75617688	      0.18774097	      0.94635872	     -0.01629008	     11.91009047	    -18.39720199	    -24.23252822	      4.42694154	      0.07726471	    -19.40650856	    -15.70624554	     -7.49999987	     11.14831036	     -7.03920984	    -22.17710564	      3.46803991	      0.06052871	     -7.01026957	    -15.06229118	     -7.49999987	     -6.12018714	     -1.36412162	     -4.74444888	      1.76939823	    -11.69058141	    -48.67305863	     58.28087372	     70.01770143	     14.33162335	     -8.88885795	     17.27745236	     18.45510006	     73.96010733
      6.08474580	     -6.06065457	      3.74745892	    -34.72448631	      0.17806669	      0.94278567	     -0.01082048	     12.98993131	    -17.68377410	    -23.75625765	      4.29844474	      0.07502201	    -19.43115308	    -15.30646872	     -7.49999987	     11.25910121	     -7.92058853	    -23.74982413	      3.52921966	      0.06159650	     -7.56813543	    -15.23002276	     -7.49999987	     -5.98626689	     -1.12959052	     -4.89917458	      3.23908169	    -12.58738645	    -49.17159780	     60.90068083	     68.77953658	     14.47290879	     -9.36307533	     17.30615443	     18.78634109	     74.31226147
      6.10169490	     -6.04010556	      3.94477701	    -36.70847449	      0.16553323	      0.94187509	     -0.00126825	     14.13848851	    -16.82317497	    -23.12957444	      4.35078699	      0.07593556	    -19.09764991	    -14.74750003	     -7.49999987	     11.25428825	     -8.86959710	    -25.43667833	      3.57947960	      0.06247370	     -8.23605443	    -15.11981118	     -7.49999987	     -5.94644665	     -1.03155867	     -5.04922277	      5.34083726	    -13.73861273	    -47.98139346	     61.78459644	     62.99965011	     14.55924072	     -9.91934794	     15.65361619	     19.10430157	     74.86265941
      6.11864410	     -5.95176402	      4.08177572	    -38.77648438	      0.15548971	      0.94306388	      0.00509852	     15.04759340	    -15.88210103	    -22.48337532	      4.19851969	      0.07327799	    -18.43622154	    -13.86424166	     -7.49999987	     11.05167525	     -9.88257600	    -27.24340014	      3.67629042	      0.06416337	     -8.64952724	    -14.77132952	     -7.49999987	     -6.08578570	     -0.82893006	     -4.75432731	      8.64590294	    -14.87634638	    -46.79686824	     60.09463087	     62.84325186	     15.35946238	    -10.17020961	     15.18052229	     18.18017952	     74.84221866
      6.13559320	     -5.88323188	      4.15145072	    -40.78498042	      0.14760709	      0.93925774	      0.01846981	     15.79362522	    -14.71932919	    -21.36639308	      4.04998592	      0.07068559	    -17.27908220	    -13.20844691	     -7.49999987	     10.60685776	    -10.95481714	    -29.14710872	      3.68342653	      0.06428792	     -9.13431554	    -14.64561939	     -7.49999987	     -6.16286209	     -0.54714329	     -4.53300561	     12.15496616	    -15.92613332	    -44.92178547	     58.13925604	     62.64006899	     15.68755982	    -10.74459647	     14.02705129	     18.00909756	     74.04034879
